# xmcd
#
# Track frame offsets:
# 150
# 16300
# 31330
# 45075
# 61830
# 69192
# 90112
# 107207
# 122305
# 142800
# 159210
# 177375
#
# Disc length: 2529 seconds
#
#
# Revision: 0
# Processed by: cddbd v1.5.1PL0 Copyright (c) Steve Scherf et al.
# Submitted via: FreeRIP 2.80 
#
DISCID=7d09df0c
DTITLE=John Denver - Higher Ground
DYEAR=1988
DGENRE=Country
TTITLE0=Higher Ground
TTITLE1=Home Grown Tomatoes
TTITLE2=Whispering Jesse
TTITLE3=Never a Doubt
TTITLE4=Deal With the Ladies
TTITLE5=Sing Australia
TTITLE6=A Country Girl in Paris
TTITLE7=For You
TTITLE8=All This Joy
TTITLE9=Falling Leaves (The Refugees)
TTITLE10=Bread and Roses
TTITLE11=Alaska and Me
EXTD=Windstar Records
EXTT0=
EXTT1=
EXTT2=
EXTT3=
EXTT4=
EXTT5=
EXTT6=
EXTT7=
EXTT8=
EXTT9=
EXTT10=
EXTT11=
PLAYORDER=
